<svg height="512" viewBox="0 0 58 58" width="512" xmlns="http://www.w3.org/2000/svg"><g id="Page-1" fill="none" fill-rule="evenodd"><g id="017---Online-Course" fill-rule="nonzero"><path id="Shape" d="m58 7v47c0 2.209139-1.790861 4-4 4h-50c-2.209139 0-4-1.790861-4-4v-47z" fill="#3180bc"/><rect id="Rectangle-path" fill="#86b4cc" height="20" rx="2" width="44" x="7" y="12"/><circle id="Oval" cx="29" cy="22" fill="#2f9f84" r="6"/><path id="Shape" d="m28 25c-.4408769.0005403-.8300902-.2877099-.9581268-.709586-.1280366-.421876.0353166-.8778265.4021268-1.122414l1.756-1.168-1.752-1.168c-.297245-.1982824-.4661282-.5400812-.4430331-.8966441s.2346599-.6737195.555-.832c.32034-.1582805.7007881-.1336383.9980331.0646441l3 2c.2781551.1854732.4452244.4976789.4452244.832s-.1670693.6465268-.4452244.832l-3 2c-.1651966.110155-.3594461.1686387-.558.168z" fill="#ebeff0"/><path id="Shape" d="m29 40v12c-.0032948 1.1032019-.8967981 1.9967052-2 2h-18c-1.10320187-.0032948-1.9967052-.8967981-2-2v-12c.0032948-1.1032019.89679813-1.9967052 2-2h2v11c0 .5522847.4477153 1 1 1h12c.5522847 0 1-.4477153 1-1v-11h2c1.1032019.0032948 1.9967052.8967981 2 2z" fill="#e04c34"/><path id="Shape" d="m18 48v2h-6c-.5522847 0-1-.4477153-1-1v-3h5c1.1032019.0032948 1.9967052.8967981 2 2z" fill="#e2be50"/><path id="Shape" d="m25 46v3c0 .5522847-.4477153 1-1 1h-6v-2c.0032948-1.1032019.8967981-1.9967052 2-2z" fill="#af8e3d"/><path id="Shape" d="m18 38v10c-.0032948-1.1032019-.8967981-1.9967052-2-2h-5v-9c0-.5522847.4477153-1 1-1h4c1.1032019.0032948 1.9967052.8967981 2 2z" fill="#f4edc7"/><path id="Shape" d="m25 37v9h-5c-1.1032019.0032948-1.9967052.8967981-2 2v-10c.0032948-1.1032019.8967981-1.9967052 2-2h4c.5522847 0 1 .4477153 1 1z" fill="#f8e8ab"/><g fill="#ebeff0"><path id="Shape" d="m51 41h-16c-.5522847 0-1-.4477153-1-1s.4477153-1 1-1h16c.5522847 0 1 .4477153 1 1s-.4477153 1-1 1z"/><path id="Shape" d="m44 53h-9c-.5522847 0-1-.4477153-1-1s.4477153-1 1-1h9c.5522847 0 1 .4477153 1 1s-.4477153 1-1 1z"/><path id="Shape" d="m44 45h-9c-.5522847 0-1-.4477153-1-1s.4477153-1 1-1h9c.5522847 0 1 .4477153 1 1s-.4477153 1-1 1z"/><path id="Shape" d="m37 49h-2c-.5522847 0-1-.4477153-1-1s.4477153-1 1-1h2c.5522847 0 1 .4477153 1 1s-.4477153 1-1 1z"/><path id="Shape" d="m51 45h-3c-.5522847 0-1-.4477153-1-1s.4477153-1 1-1h3c.5522847 0 1 .4477153 1 1s-.4477153 1-1 1z"/><path id="Shape" d="m51 49h-10c-.5522847 0-1-.4477153-1-1s.4477153-1 1-1h10c.5522847 0 1 .4477153 1 1s-.4477153 1-1 1z"/></g><path id="Shape" d="m58 4v4h-58v-4c0-2.209139 1.790861-4 4-4h50c2.209139 0 4 1.790861 4 4z" fill="#2d3e51"/><circle id="Oval" cx="5" cy="4" fill="#e04c34" r="1"/><circle id="Oval" cx="9" cy="4" fill="#f1d24b" r="1"/><circle id="Oval" cx="13" cy="4" fill="#5bb86b" r="1"/><path id="Shape" d="m52 5h-1c-.5522847 0-1-.44771525-1-1s.4477153-1 1-1h1c.5522847 0 1 .44771525 1 1s-.4477153 1-1 1z" fill="#ebeff0"/><path id="Shape" d="m47 5h-6c-.5522847 0-1-.44771525-1-1s.4477153-1 1-1h6c.5522847 0 1 .44771525 1 1s-.4477153 1-1 1z" fill="#ebeff0"/></g></g></svg>